<svg xmlns="http://www.w3.org/2000/svg" viewBox="0 0 24 24" fill="none">
  <path fill-rule="evenodd" clip-rule="evenodd" d="M3.5 5.5a2 2 0 0 1 2-2h13a2 2 0 0 1 2 2v13a2 2 0 0 1-2 2h-13a2 2 0 0 1-2-2v-13Zm2-.5a.5.5 0 0 0-.5.5v13a.5.5 0 0 0 .5.5h13a.5.5 0 0 0 .5-.5v-13a.5.5 0 0 0-.5-.5h-13Z" fill="currentColor"/>
  <path d="M7 9.25a.75.75 0 0 1 1.06 0l1.97 1.97a.75.75 0 0 1 0 1.06L8.06 14.25a.75.75 0 1 1-1.06-1.06L8.44 11.75 7 10.31a.75.75 0 0 1 0-1.06Z" fill="currentColor"/>
  <path d="M11.75 13.75a.75.75 0 0 0 0 1.5h4a.75.75 0 0 0 0-1.5h-4Z" fill="currentColor"/>
</svg>
